<?xml version="1.0" standalone="yes"?>
<svg xmlns="http://www.w3.org/2000/svg" width="978" height="182">
<path style="fill:#010101; stroke:none;" d="M0 0L0 85L1 85C2.94751 40.3306 49.8591 14.2816 90 16.0394C104.804 16.6876 119.785 22.2704 132 30.5201C135.287 32.7402 142.944 37.4269 142.944 41.9606C142.944 45.5346 135.681 51.3679 132.325 49.3642C127.44 46.448 124.299 39.076 119.985 35.1844C106.684 23.1853 87.5748 17.3241 70 21.5031C37.9016 29.1355 27.0841 62.8737 25.0895 92C22.3847 131.498 42.1528 177 87 177C98.1917 177 119.155 175.208 125.972 164.482C128.393 160.674 127 153.341 127 149L127 111C117.257 111 93.2952 115.438 88 106L149 106L149 143C149 148.02 150.289 155.188 148.397 159.907C146.648 164.265 140.832 166.687 137 168.846C124.735 175.757 110.184 180.883 96 181L96 182L198 182L198 181C182.923 178.96 172.303 167.897 169.616 153C164.53 124.801 168 93.5923 168 65L190 59L190 133C190 143.595 189.494 158.508 197.225 166.895C209.303 179.999 239.268 171.688 246.972 156.961C250.462 150.289 248 137.423 248 130L248 65L270 59L270 127C270 143.614 268.96 159.225 275 175L255.419 179.788L249 163C236.886 168.648 229.541 179.731 215 181L215 182L336 182L336 181C325.578 180.546 315.815 175.399 308 168.7C278.595 143.493 284.03 92.0144 314 69.7608C337.22 52.5187 376.234 55.3526 390.191 83C395.008 92.5419 396 102.486 396 113L312 113C312 142.035 326.158 180.601 363 170.711C370.314 168.747 377.113 165.073 382.985 160.331C387.037 157.059 389.483 152.237 395 152C384.997 166.648 369.753 180.601 351 181L351 182L438 182L438 181L406 172L409 159C421.893 171.627 437.472 179.84 456 177.826C469.614 176.347 482.022 164.416 477.146 150C474.373 141.803 466.2 137.824 459 134.248C438.23 123.929 397.771 112.995 410.479 81C418.593 60.5704 443.944 56.8695 463 60.081C475.378 62.1671 489.787 64.2773 485 79C471.77 69.9552 460.084 61.1116 443 63.1844C429.924 64.771 418.22 77.9111 425.558 90.9853C429.954 98.8186 439.213 102.099 447 105.421C467.026 113.966 494.613 122.641 493.066 149.17C492.804 153.652 491.711 158.075 489.468 162C486.757 166.743 482.459 171.078 478 174.2C471.909 178.464 464.36 180.683 457 181L457 182L538 182L538 181C523.437 179.508 518.296 166.631 516.576 154C512.755 125.927 516 95.3429 516 67L499 67L499 63L515.366 60.9722L538 24L538 62L576 62C568.554 71.0363 548.864 67 538 67L538 133C538 143.513 536.329 156.143 540.97 165.96C547.019 178.754 565.819 173.225 575 168L577 172L553 181L553 182L622 182L622 181C585.108 177.987 570.471 134.146 578.478 103C586.447 72.0045 617.369 54.1866 648 60.4498C661.212 63.1513 669.181 70.5079 679 79L679 80L669 88C659.617 68.2758 632.349 52.7862 614.44 72.1042C590.82 97.582 592.656 163.174 633 171.192C644.468 173.471 655.716 169.614 665 162.841C669.727 159.393 673.99 152.268 680 152C671.663 166.632 655.46 180.202 638 181L638 182L771 182L771 181C732.391 177.842 741 125.491 741 99C741 91.1892 737.608 72.96 742.028 66.4298C745.164 61.7967 756.875 60.6389 762 59C767.227 80.9571 763 108.423 763 131C763 141.464 762.194 152.152 766.468 162C775.401 182.583 811.704 172.509 819.972 156C822.637 150.68 821 141.826 821 136L821 88C821 82.4791 818.846 71.1306 822.028 66.4298C825.164 61.7967 836.875 60.6389 842 59L842 146C842 154.118 847.26 165.553 845.882 172.867C845.051 177.279 831.037 181.818 827.51 179.223C823.681 176.406 822.42 167.364 821 163C810.07 170.609 801.028 179.853 787 181L787 182L911 182L911 181L892 174.907L881 168.917L867 180L867 50L867 21L868.028 8.41898L887 1L887 0L717 0L717 179L695 179L695 50L695 21L696.028 8.41898L715 1L695 0L653 0L507 0L0 0z"/>
<path style="fill:#5f7565; stroke:none;" d="M695 179L717 179L717 0C711.976 1.16229 698.026 3.4744 695.603 8.41898C693.745 12.2126 695 18.8602 695 23L695 57L695 179M867 180C872.602 178.293 877.578 172.193 880 167C890.552 174.208 899.856 180.515 913 181.829C922.617 182.791 933.069 181.96 942 178.127C972.501 165.038 984.179 128.533 975.572 98C967.384 68.9554 938.033 51.106 909 62.4637C901.359 65.453 894.981 70.4954 889 76L889 0C883.976 1.16229 870.026 3.4744 867.603 8.41898C865.745 12.2127 867 18.8602 867 23L867 57L867 180z"/>
<path style="fill:#010101; stroke:none;" d="M889 0L889 76C900.402 68.2046 909.663 60.5985 924 59.1705C951.112 56.4701 975.849 81.6027 977 108L978 108L978 0L889 0z"/>
<path style="fill:#5f7565; stroke:none;" d="M88 106C91.9754 115.488 117.907 111 127 111L127 148C127 152.472 128.356 159.703 125.972 163.674C122.62 169.26 112.893 172.501 107 174.279C86.1269 180.573 64.1291 176.838 48.1698 161.575C12.4459 127.41 14.9581 37.7007 69 22.0394C86.5262 16.9602 105.686 23.2335 118.999 35.1736C123.55 39.2549 127.267 47.2551 132.375 50.2485C135.85 52.2849 143.793 45.521 143.793 41.9105C143.793 38.5105 139.325 35.5123 137 33.6188C129.848 27.7945 121.628 23.7217 113 20.5872C77.7729 7.7892 35.9692 19.6252 13.9205 50C3.25941 64.687 0 82.2617 0 100C0 109.914 0.571338 119.489 3.6713 129C17.2969 170.804 59.4196 185.609 100 181.05C114.68 179.401 135.844 174.218 146.566 163.239C151.456 158.233 149 145.505 149 139C149 132.026 152.347 113.127 147.972 107.603C145.435 104.4 136.632 106 133 106L88 106z"/>
<path style="fill:#556262; stroke:none;" d="M61 24L62 25L61 24z"/>
<path style="fill:#5f7565; stroke:none;" d="M536 24L521.86 50L514.621 60.9722L499 63L499 67L516 67L516 138C516 148.896 514.92 162.68 521.638 171.996C530.61 184.438 548.984 183.717 562 179.135C567.297 177.27 575.996 174.728 575 168C565.261 172.049 552.417 178.053 543.394 168.66C536.479 161.461 538 148.117 538 139L538 67C547.977 67 570.173 71.3213 576 62L538 62L538 24L536 24z"/>
<path style="fill:#6b736b; stroke:none;" d="M105 25L106 26L105 25M57 26L58 27L57 26z"/>
<path style="fill:#4f7a4f; stroke:none;" d="M35 29L36 30L35 29z"/>
<path style="fill:#556262; stroke:none;" d="M51 30L52 31L51 30z"/>
<path style="fill:#4f7a4f; stroke:none;" d="M113 30L114 31L113 30z"/>
<path style="fill:#556262; stroke:none;" d="M532 31L533 32L532 31z"/>
<path style="fill:#4f7a4f; stroke:none;" d="M136 33L137 34L136 33z"/>
<path style="fill:#6b736b; stroke:none;" d="M27 35L28 36L27 35M125 41L126 42L125 41z"/>
<path style="fill:#556262; stroke:none;" d="M18 44L19 45L18 44M17 45L18 46L17 45z"/>
<path style="fill:#6b736b; stroke:none;" d="M141 45L142 46L141 45M129 46L130 47L129 46z"/>
<path style="fill:#4f7a4f; stroke:none;" d="M14 49L15 50L14 49z"/>
<path style="fill:#6b736b; stroke:none;" d="M518 56L519 57L518 56z"/>
<path style="fill:#5f7565; stroke:none;" d="M168 65L168 91C168 125.484 158.394 182.235 208 181.999C213.814 181.972 219.517 180.879 225 178.91C234.485 175.503 240.975 168.631 249 163C249.576 166.902 251.338 178.708 255.43 180.303C260.043 182.101 270.552 176.703 275 175C264.695 138.685 270 96.7067 270 59L248 65L248 129C248 136.486 250.435 149.231 246.972 155.985C239.291 170.97 210.062 180.102 197.529 166.671C189.559 158.13 190 143.842 190 133L190 59L168 65M395 152C389.014 151.147 386.234 157.048 381.996 160.532C376.163 165.329 369.29 168.762 362 170.711C326.302 180.25 312 140.832 312 113L396 113C396 97.0856 393.325 81.4185 380.996 70.1042C350.295 41.928 298.927 67.3116 290.665 104C285.8 125.605 289.177 152.06 306.039 167.826C331.654 191.776 379.579 184.408 395 152M409 159C408.498 162.414 405.931 167.462 407.328 170.787C409.905 176.921 423.295 178.833 429 179.996C449.669 184.211 480.182 183.493 490.481 161C492.405 156.8 492.979 152.57 492.999 148C493.18 107.743 444.586 117.071 426.803 91.9853C417.482 78.8364 430.471 64.8251 444 63.1844C461.473 61.0655 470.771 72.4037 485 79L488 68C469.794 60.4303 450.511 55.3579 431 61.8904C411.623 68.3781 401.292 91.4905 413.789 109C428.307 129.341 465.542 126.197 476.427 149C483.169 163.123 468.984 175.828 456 177.7C436.469 180.516 423.706 169.35 409 159M680 152C673.513 151.042 668.154 160.16 663 163.64C651.811 171.196 638.856 174.258 626 169.069C596.553 157.184 593.919 109.719 606.27 85C616.044 65.4396 636.716 56.2269 655 71.3287C660.682 76.0223 664.891 81.9594 669 88L679 80C662.509 51.4744 616.641 54.0018 595.039 74.1736C576.885 91.1259 572.295 118.724 578.745 142C582.977 157.271 593.264 171.106 608 177.651C632.506 188.535 669.685 178.632 680 152z"/>
<path style="fill:#556262; stroke:none;" d="M760 59L761 60L760 59z"/>
<path style="fill:#5f7565; stroke:none;" d="M741 65L741 125C741 136.635 739.748 148.846 743.699 160C756.189 195.254 800.886 182.248 821 163C822.044 167.511 823.372 176.101 826.843 179.356C829.903 182.226 844.983 177.687 846.212 173.722C848.184 167.362 842 153.51 842 146L842 59L821 65L821 128C821 135.557 823.398 148.15 819.972 155C811.915 171.107 779.343 182.015 767.995 163.996C762.058 154.57 763 142.61 763 132L763 84C763 75.9825 764.281 66.7168 762 59L741 65z"/>
<path style="fill:#6b736b; stroke:none;" d="M184 60L185 61L184 60z"/>
<path style="fill:#4f7a4f; stroke:none;" d="M436 60L437 61L436 60z"/>
<path style="fill:#556262; stroke:none;" d="M7 61L8 62L7 61z"/>
<path style="fill:#6b736b; stroke:none;" d="M365 61L366 62L365 61z"/>
<path style="fill:#4f7a4f; stroke:none;" d="M616 61L617 62L616 61z"/>
<path style="fill:#6b736b; stroke:none;" d="M753 61L754 62L753 61M833 61L834 62L833 61z"/>
<path style="fill:#556262; stroke:none;" d="M368 62L369 63L368 62z"/>
<path style="fill:#6b736b; stroke:none;" d="M504 62L505 63L504 62z"/>
<path style="fill:#556262; stroke:none;" d="M750 62L751 63L750 62M6 63L7 64L6 63z"/>
<path style="fill:#6b736b; stroke:none;" d="M174 63L175 64L174 63M254 63L255 64L254 63z"/>
<path style="fill:#010101; stroke:none;" d="M312 108L375 108C375 95.6813 373.97 83.3583 366.363 73.0147C356.234 59.2421 335.93 61.1278 325.21 73.0401C316.667 82.5324 313.563 95.6994 312 108z"/>
<path style="fill:#6b736b; stroke:none;" d="M611 63L612 64L611 63M658 63L659 64L658 63z"/>
<path style="fill:#556262; stroke:none;" d="M574 64L575 65L574 64z"/>
<path style="fill:#6b736b; stroke:none;" d="M743 64L744 65L743 64M823 64L824 65L823 64z"/>
<path style="fill:#556262; stroke:none;" d="M374 65L375 66L374 65M423 65L424 66L423 65M318 66L319 67L318 66z"/>
<path style="fill:#4f7a4f; stroke:none;" d="M333 66L334 67L333 66z"/>
<path style="fill:#6b736b; stroke:none;" d="M420 67L421 68L420 67z"/>
<path style="fill:#556262; stroke:none;" d="M467 67L468 68L467 67z"/>
<path style="fill:#6b736b; stroke:none;" d="M486 67L487 68L486 67M620 67L621 68L620 67z"/>
<path style="fill:#010101; stroke:none;" d="M916 67.4398C907.015 68.8801 894.335 74.4282 890.028 83.0008C886.163 90.6925 889 105.478 889 114C889 135.671 882.405 173.05 913 176.931C916.964 177.434 921.044 177.406 925 176.829C937.637 174.986 945.739 163.165 949.655 152C958.695 126.229 958.916 60.5604 916 67.4398z"/>
<path style="fill:#556262; stroke:none;" d="M602 68L603 69L602 68z"/>
<path style="fill:#4f7a4f; stroke:none;" d="M312 70L313 71L312 70z"/>
<path style="fill:#6b736b; stroke:none;" d="M654 70L655 71L654 70M3 71L4 72L3 71M487 71L488 72L487 71z"/>
<path style="fill:#4f7a4f; stroke:none;" d="M598 71L599 72L598 71z"/>
<path style="fill:#6b736b; stroke:none;" d="M894 71L895 72L894 71M426 72L427 73L426 72z"/>
<path style="fill:#556262; stroke:none;" d="M960 72L961 73L960 72M414 73L415 74L414 73M477 73L478 74L477 73z"/>
<path style="fill:#6b736b; stroke:none;" d="M613 73L614 74L613 73z"/>
<path style="fill:#556262; stroke:none;" d="M900 73L901 74L900 73M938 73L939 74L938 73M961 73L962 74L961 73M612 74L613 75L612 74z"/>
<path style="fill:#6b736b; stroke:none;" d="M962 74L963 75L962 74M963 75L964 76L963 75z"/>
<path style="fill:#556262; stroke:none;" d="M368 76L369 77L368 76M412 76L413 77L412 76z"/>
<path style="fill:#6b736b; stroke:none;" d="M321 78L322 79L321 78M369 78L370 79L369 78z"/>
<path style="fill:#556262; stroke:none;" d="M662 78L663 79L662 78M1 79L2 80L1 79z"/>
<path style="fill:#4f7a4f; stroke:none;" d="M388 79L389 80L388 79z"/>
<path style="fill:#6b736b; stroke:none;" d="M370 80L371 81L370 80z"/>
<path style="fill:#4f7a4f; stroke:none;" d="M608 80L609 81L608 80z"/>
<path style="fill:#6b736b; stroke:none;" d="M301 81L302 82L301 81z"/>
<path style="fill:#4f7a4f; stroke:none;" d="M945 81L946 82L945 81z"/>
<path style="fill:#6b736b; stroke:none;" d="M371 82L372 83L371 82M0 85L1 86L0 85z"/>
<path style="fill:#556262; stroke:none;" d="M672 85L673 86L672 85z"/>
<path style="fill:#4f7a4f; stroke:none;" d="M25 88L26 89L25 88z"/>
<path style="fill:#556262; stroke:none;" d="M604 88L605 89L604 88M393 90L394 91L393 90z"/>
<path style="fill:#4f7a4f; stroke:none;" d="M582 91L583 92L582 91z"/>
<path style="fill:#556262; stroke:none;" d="M603 91L604 92L603 91z"/>
<path style="fill:#4f7a4f; stroke:none;" d="M293 95L294 96L293 95z"/>
<path style="fill:#6b736b; stroke:none;" d="M430 96L431 97L430 96z"/>
<path style="fill:#4f7a4f; stroke:none;" d="M313 98L314 99L313 98z"/>
<path style="fill:#556262; stroke:none;" d="M434 99L435 100L434 99z"/>
<path style="fill:#4f7a4f; stroke:none;" d="M601 99L602 100L601 99z"/>
<path style="fill:#556262; stroke:none;" d="M440 102L441 103L440 102M953 103L954 104L953 103M148 106L149 107L148 106M413 108L414 109L413 108M977 108L978 109L977 108z"/>
<path style="fill:#6b736b; stroke:none;" d="M89 109L90 110L89 109z"/>
<path style="fill:#010101; stroke:none;" d="M0 114L0 182L74 182L74 181C48.0079 180.785 21.6881 164.667 9.3125 142C4.44123 133.078 4.01291 122.939 0 114z"/>
<path style="fill:#6b736b; stroke:none;" d="M470 115L471 116L470 115z"/>
<path style="fill:#556262; stroke:none;" d="M27 123L28 124L27 123M28 127L29 128L28 127z"/>
<path style="fill:#4f7a4f; stroke:none;" d="M312 128L313 129L312 128z"/>
<path style="fill:#6b736b; stroke:none;" d="M445 128L446 129L445 128z"/>
<path style="fill:#4f7a4f; stroke:none;" d="M600 129L601 130L600 129z"/>
<path style="fill:#010101; stroke:none;" d="M977 129C975.961 152.842 953.779 179.868 929 181L929 182L978 182L978 146L977 129z"/>
<path style="fill:#556262; stroke:none;" d="M459 134L460 135L459 134z"/>
<path style="fill:#6b736b; stroke:none;" d="M491 135L492 136L491 135z"/>
<path style="fill:#4f7a4f; stroke:none;" d="M601 135L602 136L601 135z"/>
<path style="fill:#6b736b; stroke:none;" d="M6 136L7 137L6 136M492 138L493 139L492 138z"/>
<path style="fill:#4f7a4f; stroke:none;" d="M290 139L291 140L290 139z"/>
<path style="fill:#6b736b; stroke:none;" d="M974 142L975 143L974 142z"/>
<path style="fill:#4f7a4f; stroke:none;" d="M34 143L35 144L34 143z"/>
<path style="fill:#6b736b; stroke:none;" d="M10 144L11 145L10 144z"/>
<path style="fill:#4f7a4f; stroke:none;" d="M292 146L293 147L292 146z"/>
<path style="fill:#6b736b; stroke:none;" d="M475 146L476 147L475 146z"/>
<path style="fill:#4f7a4f; stroke:none;" d="M493 146L494 147L493 146z"/>
<path style="fill:#556262; stroke:none;" d="M951 146L952 147L951 146z"/>
<path style="fill:#4f7a4f; stroke:none;" d="M190 147L191 148L190 147z"/>
<path style="fill:#556262; stroke:none;" d="M318 149L319 150L318 149z"/>
<path style="fill:#6b736b; stroke:none;" d="M950 149L951 150L950 149z"/>
<path style="fill:#556262; stroke:none;" d="M14 150L15 151L14 150M606 150L607 151L606 150M294 151L295 152L294 151z"/>
<path style="fill:#6b736b; stroke:none;" d="M970 151L971 152L970 151M949 152L950 153L949 152z"/>
<path style="fill:#556262; stroke:none;" d="M191 153L192 154L191 153z"/>
<path style="fill:#4f7a4f; stroke:none;" d="M295 153L296 154L295 153z"/>
<path style="fill:#6b736b; stroke:none;" d="M17 154L18 155L17 154M321 154L322 155L321 154M609 155L610 156L609 155z"/>
<path style="fill:#556262; stroke:none;" d="M19 156L20 157L19 156M192 157L193 158L192 157z"/>
<path style="fill:#6b736b; stroke:none;" d="M298 158L299 159L298 158z"/>
<path style="fill:#4f7a4f; stroke:none;" d="M612 159L613 160L612 159M171 160L172 161L171 160z"/>
<path style="fill:#6b736b; stroke:none;" d="M193 160L194 161L193 160M270 160L271 161L270 160z"/>
<path style="fill:#556262; stroke:none;" d="M382 160L383 161L382 160M674 160L675 161L674 160z"/>
<path style="fill:#4f7a4f; stroke:none;" d="M964 160L965 161L964 160z"/>
<path style="fill:#556262; stroke:none;" d="M148 161L149 162L148 161z"/>
<path style="fill:#6b736b; stroke:none;" d="M300 161L301 162L300 161z"/>
<path style="fill:#556262; stroke:none;" d="M539 161L540 162L539 161z"/>
<path style="fill:#4f7a4f; stroke:none;" d="M666 161L667 162L666 161z"/>
<path style="fill:#556262; stroke:none;" d="M673 161L674 162L673 161z"/>
<path style="fill:#6b736b; stroke:none;" d="M301 162L302 163L301 162z"/>
<path style="fill:#556262; stroke:none;" d="M615 162L616 163L615 162z"/>
<path style="fill:#4f7a4f; stroke:none;" d="M378 163L379 164L378 163z"/>
<path style="fill:#556262; stroke:none;" d="M386 163L387 164L386 163z"/>
<path style="fill:#4f7a4f; stroke:none;" d="M616 163L617 164L616 163z"/>
<path style="fill:#6b736b; stroke:none;" d="M385 164L386 165L385 164z"/>
<path style="fill:#4f7a4f; stroke:none;" d="M416 165L417 166L416 165z"/>
<path style="fill:#6b736b; stroke:none;" d="M591 165L592 166L591 165M844 165L845 166L844 165z"/>
<path style="fill:#556262; stroke:none;" d="M417 166L418 167L417 166M808 166L809 167L808 166z"/>
<path style="fill:#6b736b; stroke:none;" d="M54 167L55 168L54 167z"/>
<path style="fill:#4f7a4f; stroke:none;" d="M197 167L198 168L197 167z"/>
<path style="fill:#6b736b; stroke:none;" d="M335 167L336 168L335 167M371 167L372 168L371 167M880 167L881 168L880 167z"/>
<path style="fill:#4f7a4f; stroke:none;" d="M881 167L882 168L881 167z"/>
<path style="fill:#556262; stroke:none;" d="M232 168L233 169L232 168z"/>
<path style="fill:#6b736b; stroke:none;" d="M814 168L815 169L814 168M57 169L58 170L57 169z"/>
<path style="fill:#4f7a4f; stroke:none;" d="M339 169L340 170L339 169z"/>
<path style="fill:#6b736b; stroke:none;" d="M406 169L407 170L406 169z"/>
<path style="fill:#4f7a4f; stroke:none;" d="M626 169L627 170L626 169z"/>
<path style="fill:#556262; stroke:none;" d="M665 169L666 170L665 169M134 170L135 171L134 170M239 170L240 171L239 170M749 170L750 171L749 170M954 170L955 171L954 170M132 171L133 172L132 171z"/>
<path style="fill:#6b736b; stroke:none;" d="M406 171L407 172L406 171M567 171L568 172L567 171M576 171L577 172L576 171z"/>
<path style="fill:#4f7a4f; stroke:none;" d="M936 171L937 172L936 171z"/>
<path style="fill:#6b736b; stroke:none;" d="M374 173L375 174L374 173M468 173L469 174L468 173z"/>
<path style="fill:#556262; stroke:none;" d="M560 173L561 174L560 173M903 173L904 174L903 173z"/>
<path style="fill:#6b736b; stroke:none;" d="M933 173L934 174L933 173M950 173L951 174L950 173z"/>
<path style="fill:#4f7a4f; stroke:none;" d="M602 174L603 175L602 174z"/>
<path style="fill:#6b736b; stroke:none;" d="M252 175L253 176L252 175z"/>
<path style="fill:#4f7a4f; stroke:none;" d="M464 175L465 176L464 175M476 175L477 176L476 175z"/>
<path style="fill:#556262; stroke:none;" d="M656 175L657 176L656 175z"/>
<path style="fill:#4f7a4f; stroke:none;" d="M804 175L805 176L804 175z"/>
<path style="fill:#556262; stroke:none;" d="M892 175L893 176L892 175M50 176L51 177L50 176M98 176L99 177L98 176z"/>
<path style="fill:#4f7a4f; stroke:none;" d="M183 176L184 177L183 176z"/>
<path style="fill:#556262; stroke:none;" d="M270 176L271 177L270 176M416 176L417 177L416 176z"/>
<path style="fill:#6b736b; stroke:none;" d="M185 177L186 178L185 177z"/>
<path style="fill:#556262; stroke:none;" d="M267 177L268 178L267 177z"/>
<path style="fill:#6b736b; stroke:none;" d="M871 177L872 178L871 177M61 179L62 180L61 179M426 179L427 180L426 179M467 179L468 180L467 179M613 179L614 180L613 179z"/>
<path style="fill:#556262; stroke:none;" d="M762 179L763 180L762 179z"/>
<path style="fill:#6b736b; stroke:none;" d="M833 179L834 180L833 179z"/>
<path style="fill:#556262; stroke:none;" d="M219 180L220 181L219 180z"/>
<path style="fill:#6b736b; stroke:none;" d="M336 181L337 182L336 181z"/>
</svg>
